<svg xmlns="http://www.w3.org/2000/svg" xmlns:xlink="http://www.w3.org/1999/xlink" version="1.1" x="0px" y="0px" viewBox="0 0 100 125" enable-background="new 0 0 100 100" xml:space="preserve"><g><path fill-rule="evenodd" clip-rule="evenodd" d="M27.721,44.216c-3.187,0-5.784,2.599-5.784,5.784s2.598,5.785,5.784,5.785   c3.186,0,5.784-2.6,5.784-5.785S30.906,44.216,27.721,44.216z"/><path fill-rule="evenodd" clip-rule="evenodd" d="M49.996,41.541c-4.659,0-8.459,3.8-8.459,8.459c0,4.658,3.8,8.459,8.459,8.459   s8.458-3.801,8.458-8.459C58.454,45.341,54.655,41.541,49.996,41.541z"/><path fill-rule="evenodd" clip-rule="evenodd" d="M9.819,45.778c-2.324,0-4.221,1.896-4.221,4.222c0,2.324,1.896,4.222,4.221,4.222   c2.325,0,4.222-1.897,4.222-4.222C14.041,47.675,12.145,45.778,9.819,45.778z"/><path fill-rule="evenodd" clip-rule="evenodd" d="M72.279,44.216c-3.185,0-5.783,2.599-5.783,5.784s2.599,5.785,5.783,5.785   c3.186,0,5.785-2.6,5.785-5.785S75.465,44.216,72.279,44.216z"/><path fill-rule="evenodd" clip-rule="evenodd" d="M90.182,45.778c-2.326,0-4.223,1.896-4.223,4.222   c0,2.324,1.896,4.222,4.223,4.222c2.324,0,4.22-1.897,4.22-4.222C94.401,47.675,92.506,45.778,90.182,45.778z"/></g><text x="0" y="115" fill="#000000" font-size="5px" font-weight="bold" font-family="'Helvetica Neue', Helvetica, Arial-Unicode, Arial, Sans-serif">Created by Nikita Kozin</text><text x="0" y="120" fill="#000000" font-size="5px" font-weight="bold" font-family="'Helvetica Neue', Helvetica, Arial-Unicode, Arial, Sans-serif">from the Noun Project</text></svg>